<?xml version="1.0" encoding="UTF-8" standalone="no"?>
<!-- Created with Inkscape (http://www.inkscape.org/) -->

<svg
   xmlns:dc="http://purl.org/dc/elements/1.1/"
   xmlns:cc="http://creativecommons.org/ns#"
   xmlns:rdf="http://www.w3.org/1999/02/22-rdf-syntax-ns#"
   xmlns:svg="http://www.w3.org/2000/svg"
   xmlns="http://www.w3.org/2000/svg"
   xmlns:xlink="http://www.w3.org/1999/xlink"
   version="1.1"
   width="27.639284"
   height="27.639284"
   id="svg3006">
  <defs
     id="defs3008" />
  <metadata
     id="metadata3011">
    <rdf:RDF>
      <cc:Work
         rdf:about="">
        <dc:format>image/svg+xml</dc:format>
        <dc:type
           rdf:resource="http://purl.org/dc/dcmitype/StillImage" />
        <dc:title></dc:title>
        <cc:license
           rdf:resource="" />
        <dc:description>Offers you have gotten on your requestoffer</dc:description>
      </cc:Work>
    </rdf:RDF>
  </metadata>
  <g
     transform="translate(1.0964284,-1026.1765)"
     id="layer1">
    <path
       d="m 26.428571,14.508928 a 13.169642,13.169642 0 1 1 -26.33928515,0 13.169642,13.169642 0 1 1 26.33928515,0 z"
       transform="translate(-0.53571429,1025.4872)"
       id="path5163"
       style="fill:none;stroke:#000000;stroke-width:1.29999995;stroke-linejoin:bevel;stroke-miterlimit:4;stroke-opacity:1;stroke-dasharray:none" />
    <path
       d="m 7.4107141,8.6607141 a 0.98214287,1.9642857 0 1 1 -1.9642857,0 0.98214287,1.9642857 0 1 1 1.9642857,0 z"
       transform="translate(0,1027.3622)"
       id="path5173"
       style="fill:#000000;fill-opacity:1;stroke:#000000;stroke-width:1.29999995;stroke-linejoin:bevel;stroke-miterlimit:4;stroke-opacity:1;stroke-dasharray:none" />
    <use
       transform="matrix(-1,0,0,1,22.857142,0)"
       id="use5175"
       x="0"
       y="0"
       width="25"
       height="25"
       xlink:href="#path5173" />
    <path
       d="M 20.775331,20.055766 A 7.4330354,6.9866071 0 1 1 6.1239032,17.892484 l 7.2466328,1.554835 z"
       transform="translate(-0.33432716,1023.8334)"
       id="path6220"
       style="fill:#000000;fill-opacity:1;stroke:none" />
  </g>
</svg>
