<?xml version="1.0" encoding="UTF-8" standalone="no"?>
<!-- Created with Inkscape (http://www.inkscape.org/) -->

<svg
   xmlns:dc="http://purl.org/dc/elements/1.1/"
   xmlns:cc="http://creativecommons.org/ns#"
   xmlns:rdf="http://www.w3.org/1999/02/22-rdf-syntax-ns#"
   xmlns:svg="http://www.w3.org/2000/svg"
   xmlns="http://www.w3.org/2000/svg"
   version="1.1"
   width="111"
   height="100.64283"
   id="svg2">
  <defs
     id="defs4">
    <filter
       color-interpolation-filters="sRGB"
       id="filter3799">
      <feTurbulence
         type="fractalNoise"
         baseFrequency="0.02"
         numOctaves="5"
         id="feTurbulence3801" />
      <feColorMatrix
         values="1 0 0 0 0 0 1 0 0 0 0 0 1 0 0 0 0 0 3 -1 "
         result="result0"
         id="feColorMatrix3803" />
      <feFlood
         result="result1"
         flood-color="rgb(145,199,195)"
         flood-opacity="1"
         id="feFlood3805" />
      <feBlend
         in2="SourceGraphic"
         mode="normal"
         in="result1"
         result="result2"
         id="feBlend3807" />
      <feComposite
         in2="result0"
         operator="out"
         result="result3"
         id="feComposite3809" />
      <feComposite
         in2="SourceGraphic"
         operator="atop"
         id="feComposite3811" />
    </filter>
    <filter
       color-interpolation-filters="sRGB"
       id="filter3799-2">
      <feTurbulence
         type="fractalNoise"
         baseFrequency="0.02"
         numOctaves="5"
         id="feTurbulence3801-0" />
      <feColorMatrix
         values="1 0 0 0 0 0 1 0 0 0 0 0 1 0 0 0 0 0 3 -1 "
         result="result0"
         id="feColorMatrix3803-6" />
      <feFlood
         result="result1"
         flood-color="rgb(145,199,195)"
         flood-opacity="1"
         id="feFlood3805-8" />
      <feBlend
         in2="SourceGraphic"
         mode="normal"
         in="result1"
         result="result2"
         id="feBlend3807-1" />
      <feComposite
         in2="result0"
         operator="out"
         result="result3"
         id="feComposite3809-8" />
      <feComposite
         in2="SourceGraphic"
         operator="atop"
         id="feComposite3811-1" />
    </filter>
    <filter
       color-interpolation-filters="sRGB"
       id="filter4325">
      <feGaussianBlur
         stdDeviation="4"
         in="SourceAlpha"
         result="result0"
         id="feGaussianBlur4327" />
      <feOffset
         result="result4"
         dy="5"
         dx="5"
         id="feOffset4329" />
      <feComposite
         in2="result4"
         operator="xor"
         in="SourceGraphic"
         result="result3"
         id="feComposite4331" />
    </filter>
    <filter
       x="0"
       y="0"
       width="1"
       height="1"
       color-interpolation-filters="sRGB"
       id="filter6235">
      <feGaussianBlur
         stdDeviation="4.2"
         in="SourceAlpha"
         id="feGaussianBlur6237" />
      <feOffset
         result="result91"
         dx="5"
         dy="5"
         id="feOffset6239" />
      <feComposite
         in2="result91"
         operator="out"
         in="SourceGraphic"
         id="feComposite6241" />
    </filter>
    <filter
       x="0"
       y="0"
       width="1"
       height="1"
       color-interpolation-filters="sRGB"
       id="filter6227">
      <feGaussianBlur
         stdDeviation="4.2"
         in="SourceAlpha"
         id="feGaussianBlur6229" />
      <feOffset
         result="result91"
         dx="5"
         dy="5"
         id="feOffset6231" />
      <feComposite
         in2="result91"
         operator="out"
         in="SourceGraphic"
         id="feComposite6233" />
    </filter>
    <filter
       x="0"
       y="0"
       width="1"
       height="1"
       color-interpolation-filters="sRGB"
       id="filter6219">
      <feGaussianBlur
         stdDeviation="4.2"
         in="SourceAlpha"
         id="feGaussianBlur6221" />
      <feOffset
         result="result91"
         dx="5"
         dy="5"
         id="feOffset6223" />
      <feComposite
         in2="result91"
         operator="out"
         in="SourceGraphic"
         id="feComposite6225" />
    </filter>
    <filter
       x="0"
       y="0"
       width="1"
       height="1"
       color-interpolation-filters="sRGB"
       id="filter6211">
      <feGaussianBlur
         stdDeviation="4.2"
         in="SourceAlpha"
         id="feGaussianBlur6213" />
      <feOffset
         result="result91"
         dx="5"
         dy="5"
         id="feOffset6215" />
      <feComposite
         in2="result91"
         operator="out"
         in="SourceGraphic"
         id="feComposite6217" />
    </filter>
    <filter
       x="0"
       y="0"
       width="1"
       height="1"
       color-interpolation-filters="sRGB"
       id="filter6203">
      <feGaussianBlur
         stdDeviation="4.2"
         in="SourceAlpha"
         id="feGaussianBlur6205" />
      <feOffset
         result="result91"
         dx="5"
         dy="5"
         id="feOffset6207" />
      <feComposite
         in2="result91"
         operator="out"
         in="SourceGraphic"
         id="feComposite6209" />
    </filter>
    <filter
       x="0"
       y="0"
       width="1"
       height="1"
       color-interpolation-filters="sRGB"
       id="filter6195">
      <feGaussianBlur
         stdDeviation="4.2"
         in="SourceAlpha"
         id="feGaussianBlur6197" />
      <feOffset
         result="result91"
         dx="5"
         dy="5"
         id="feOffset6199" />
      <feComposite
         in2="result91"
         operator="out"
         in="SourceGraphic"
         id="feComposite6201" />
    </filter>
  </defs>
  <metadata
     id="metadata7">
    <rdf:RDF>
      <cc:Work
         rdf:about="">
        <dc:format>image/svg+xml</dc:format>
        <dc:type
           rdf:resource="http://purl.org/dc/dcmitype/StillImage" />
        <dc:title></dc:title>
      </cc:Work>
    </rdf:RDF>
  </metadata>
  <g
     transform="translate(-85.664993,-328.22821)"
     id="layer1">
    <rect
       width="110"
       height="99.64286"
       ry="12.121831"
       x="86.571426"
       y="329.00504"
       id="rect3978"
       style="fill:#6ad580;fill-opacity:1;stroke:none" />
    <rect
       width="110"
       height="99.64283"
       ry="12.121831"
       x="86.164993"
       y="328.72821"
       id="rect3978-6"
       style="fill:none;stroke:#000000;stroke-opacity:1" />
    <g
       transform="translate(-0.99920433,-30.514351)"
       id="g6725">
      <path
         d="m 100.37857,399.17289 c -1.000003,-0.675 -2.550005,-1.125 -4.000004,-1.125 -3.749996,0 -6.45,2.275 -6.45,5.45 0,1.575 0.700001,2.95 1.9,3.725 0.874999,0.55 1.375003,0.725 4.325,1.45 l 2.475,0.625 c 1.874994,0.475 2.400004,0.85 2.400004,1.775 0,1.3 -1.300006,2.225 -3.150004,2.225 -1.749998,0 -3.500001,-0.775 -4.75,-2.075 -0.674999,-0.75 -1.150001,-1.375 -1.8,-2.55 l -1.875,0.625 2.075,6.375 1.475,0 0.35,-1.225 c 1.049999,0.775 2.775002,1.275 4.475,1.275 4.074994,0 7.075004,-2.55001 7.075004,-6 0,-1.55 -0.67501,-2.925 -1.825,-3.675 -0.75,-0.5 -1.47501,-0.75 -3.575004,-1.325 l -2.275,-0.6 c -0.075,-0.025 -0.525001,-0.125 -1.225,-0.275 -1.524998,-0.35 -2.2,-0.825 -2.2,-1.625 0,-1.025 1.150002,-1.75 2.75,-1.75 1.424999,0 2.975001,0.675 3.925004,1.7 0.425,0.45 0.75,0.85 1.55,1.95 l 1.8,-0.675 -1.65,-5.075 -1.5,0 -0.3,0.8"
         id="path4449"
         style="font-size:25px;font-style:normal;font-variant:normal;font-weight:bold;font-stretch:normal;text-align:start;line-height:125%;letter-spacing:0px;word-spacing:0px;writing-mode:lr-tb;text-anchor:start;fill:#000000;fill-opacity:1;stroke:none;filter:url(#filter6235);font-family:URW Bookman L;-inkscape-font-specification:URW Bookman L Bold" />
      <path
         d="m 116.73247,398.37289 -3.875,0 -4.95,11.875 c -0.95,2.2 -1.525,2.825 -2.925,3.05 l -0.4,0.05 0,2.05 7.725,0 0,-2.05 -0.4,-0.05 c -1.35,-0.175 -1.85,-0.425 -1.85,-0.9 0,-0.15 0.1,-0.625 0.225,-0.9 l 0.8,-2.15 5.375,0 0.75,2.125 c 0.175,0.45 0.275,0.875 0.275,1.075 0,0.45 -0.45,0.675 -1.475,0.75 l -0.625,0.05 0,2.05 9.125,0 0,-2.05 -0.4,-0.05 c -1.4,-0.25 -1.625,-0.5 -2.475,-2.725 l -4.9,-12.2 m -4.85,8.85 1.9,-4.875 1.85,4.875 -3.75,0"
         id="path4451"
         style="font-size:25px;font-style:normal;font-variant:normal;font-weight:bold;font-stretch:normal;text-align:start;line-height:125%;letter-spacing:0px;word-spacing:0px;writing-mode:lr-tb;text-anchor:start;fill:#000000;fill-opacity:1;stroke:none;filter:url(#filter6227);font-family:URW Bookman L;-inkscape-font-specification:URW Bookman L Bold" />
      <path
         d="m 134.20005,408.19789 3.225,-5 c 1.3,-2.025 2.25,-2.675 3.975,-2.775 l 0,-2.05 -7.65,0 0,2.05 c 1.45,0.025 1.85,0.15 1.85,0.55 0,0.225 -0.175,0.575 -0.7,1.45 l -1.95,3.225 -2.05,-3.725 c -0.4,-0.75 -0.4,-0.75 -0.4,-0.9 0,-0.425 0.525,-0.575 1.95,-0.6 l 0,-2.05 -9.5,0 0,2.05 c 1.5,0.15 2.225,0.725 3.375,2.6 l 3.5,5.475 0,2.7 c 0,0.95 -0.075,1.325 -0.3,1.575 -0.225,0.275 -0.825,0.475 -1.4,0.525 l -0.7,0.05 0,2.05 9.175,0 0,-2.05 -0.7,-0.05 c -0.575,-0.05 -1.175,-0.25 -1.4,-0.525 -0.225,-0.25 -0.3,-0.6 -0.3,-1.575 l 0,-3"
         id="path4453"
         style="font-size:25px;font-style:normal;font-variant:normal;font-weight:bold;font-stretch:normal;text-align:start;line-height:125%;letter-spacing:0px;word-spacing:0px;writing-mode:lr-tb;text-anchor:start;fill:#000000;fill-opacity:1;stroke:none;filter:url(#filter6219);font-family:URW Bookman L;-inkscape-font-specification:URW Bookman L Bold" />
      <path
         d="m 152.23052,398.37289 -3.875,0 -4.95,11.875 c -0.95,2.2 -1.525,2.825 -2.925,3.05 l -0.4,0.05 0,2.05 7.725,0 0,-2.05 -0.4,-0.05 c -1.35,-0.175 -1.85,-0.425 -1.85,-0.9 0,-0.15 0.1,-0.625 0.225,-0.9 l 0.8,-2.15 5.375,0 0.75,2.125 c 0.175,0.45 0.275,0.875 0.275,1.075 0,0.45 -0.45,0.675 -1.475,0.75 l -0.625,0.05 0,2.05 9.125,0 0,-2.05 -0.4,-0.05 c -1.4,-0.25 -1.625,-0.5 -2.475,-2.725 l -4.9,-12.2 m -4.85,8.85 1.9,-4.875 1.85,4.875 -3.75,0"
         id="path4455"
         style="font-size:25px;font-style:normal;font-variant:normal;font-weight:bold;font-stretch:normal;text-align:start;line-height:125%;letter-spacing:0px;word-spacing:0px;writing-mode:lr-tb;text-anchor:start;fill:#000000;fill-opacity:1;stroke:none;filter:url(#filter6211);font-family:URW Bookman L;-inkscape-font-specification:URW Bookman L Bold" />
      <path
         d="m 169.6981,408.19789 3.225,-5 c 1.3,-2.025 2.25,-2.675 3.975,-2.775 l 0,-2.05 -7.65,0 0,2.05 c 1.45,0.025 1.85,0.15 1.85,0.55 0,0.225 -0.175,0.575 -0.7,1.45 l -1.95,3.225 -2.05,-3.725 c -0.4,-0.75 -0.4,-0.75 -0.4,-0.9 0,-0.425 0.525,-0.575 1.95,-0.6 l 0,-2.05 -9.5,0 0,2.05 c 1.5,0.15 2.225,0.725 3.375,2.6 l 3.5,5.475 0,2.7 c 0,0.95 -0.075,1.325 -0.3,1.575 -0.225,0.275 -0.825,0.475 -1.4,0.525 l -0.7,0.05 0,2.05 9.175,0 0,-2.05 -0.7,-0.05 c -0.575,-0.05 -1.175,-0.25 -1.4,-0.525 -0.225,-0.25 -0.3,-0.6 -0.3,-1.575 l 0,-3"
         id="path4457"
         style="font-size:25px;font-style:normal;font-variant:normal;font-weight:bold;font-stretch:normal;text-align:start;line-height:125%;letter-spacing:0px;word-spacing:0px;writing-mode:lr-tb;text-anchor:start;fill:#000000;fill-opacity:1;stroke:none;filter:url(#filter6203);font-family:URW Bookman L;-inkscape-font-specification:URW Bookman L Bold" />
      <path
         d="m 188.72857,402.34789 -1.95,0 c -0.025,1.35 -0.225,2.075 -0.675,2.425 -0.3,0.225 -0.72501,0.3 -1.875,0.3 l -0.725,0 0,-2.125 c 0,-1.325 0.025,-1.575 0.225,-1.825 0.25,-0.325 1.125,-0.5 2.425,-0.5 2.19999,0 4.3,1.325 5.975,3.75 l 1.7,-0.85 -2.475,-5.15 -14.425,0 0,2.05 0.5,0.05 c 1.39999,0.15 1.7,0.5 1.7,2.1 l 0,8.625 c 0,1.6 -0.30001,1.95 -1.7,2.1 l -0.5,0.05 0,2.05 14.85,0 2.75,-5.9 -1.75,-0.825 c -2.175,3.125 -4.35001,4.475 -7.2,4.475 -1.125,0 -1.775,-0.2 -1.95,-0.6 -0.1,-0.25 -0.125,-0.575 -0.125,-2.225 l 0,-2.95 0.7,0 c 0.875,0 1.4,0.125 1.725,0.425 0.4,0.375 0.7,1.2 0.85,2.325 l 1.95,0 0,-7.775"
         id="path4459"
         style="font-size:25px;font-style:normal;font-variant:normal;font-weight:bold;font-stretch:normal;text-align:start;line-height:125%;letter-spacing:0px;word-spacing:0px;writing-mode:lr-tb;text-anchor:start;fill:#000000;fill-opacity:1;stroke:none;filter:url(#filter6195);font-family:URW Bookman L;-inkscape-font-specification:URW Bookman L Bold" />
    </g>
  </g>
</svg>
