<?xml version="1.0" encoding="UTF-8" standalone="no"?>
<!-- Created with Inkscape (http://www.inkscape.org/) -->

<svg
   xmlns:dc="http://purl.org/dc/elements/1.1/"
   xmlns:cc="http://creativecommons.org/ns#"
   xmlns:rdf="http://www.w3.org/1999/02/22-rdf-syntax-ns#"
   xmlns:svg="http://www.w3.org/2000/svg"
   xmlns="http://www.w3.org/2000/svg"
   version="1.1"
   width="7.6897783"
   height="25.218258"
   id="svg3006">
  <defs
     id="defs3008" />
  <metadata
     id="metadata3011">
    <rdf:RDF>
      <cc:Work
         rdf:about="">
        <dc:format>image/svg+xml</dc:format>
        <dc:type
           rdf:resource="http://purl.org/dc/dcmitype/StillImage" />
        <dc:title></dc:title>
      </cc:Work>
    </rdf:RDF>
  </metadata>
  <g
     transform="translate(-9.0899766,-1028.1569)"
     id="layer1">
    <path
       d="m 10.357143,7.5 a 2.3214285,2.3214285 0 1 1 -4.6428574,0 2.3214285,2.3214285 0 1 1 4.6428574,0 z"
       transform="matrix(1.2,0,0,1.2,3.2084543,1021.9426)"
       id="path5053-5-9"
       style="fill:#000000;fill-opacity:1;stroke:none" />
    <path
       d="m 11.21129,1034.0362 3.788073,0.076 0.984898,0.6062 0.757614,0.8712 0.03788,7.6898 -0.454568,1.1364 -0.757614,0.6818 0.07577,8.2202 c 0,0 -5.265421,0.1515 -5.341182,-0.038 -0.07576,-0.1894 0.03788,-8.2202 0.03788,-8.2202 l -0.9470194,-0.7954 -0.265165,-0.7955 -0.03788,-7.311 0.568211,-1.3637 z"
       id="path5747"
       style="fill:#000000;fill-opacity:1;stroke:none" />
  </g>
</svg>
