<?xml version="1.0" encoding="UTF-8" standalone="no"?>
<!-- Created with Inkscape (http://www.inkscape.org/) -->

<svg
   xmlns:dc="http://purl.org/dc/elements/1.1/"
   xmlns:cc="http://creativecommons.org/ns#"
   xmlns:rdf="http://www.w3.org/1999/02/22-rdf-syntax-ns#"
   xmlns:svg="http://www.w3.org/2000/svg"
   xmlns="http://www.w3.org/2000/svg"
   version="1.1"
   width="20.755014"
   height="22.97345"
   id="svg3006">
  <defs
     id="defs3008" />
  <metadata
     id="metadata3011">
    <rdf:RDF>
      <cc:Work
         rdf:about="">
        <dc:format>image/svg+xml</dc:format>
        <dc:type
           rdf:resource="http://purl.org/dc/dcmitype/StillImage" />
        <dc:title></dc:title>
      </cc:Work>
    </rdf:RDF>
  </metadata>
  <g
     transform="translate(-2.222664,-1028.9649)"
     id="layer1">
    <g
       id="g4389">
      <path
         d="m 12.592186,1037.8918 2.209709,2.2097 -2.520457,2.6007 -0.570416,0.5886 -0.637361,0.6577 -0.996999,1.0787 1.257104,1.2569 -1.115599,1.2696 -1.4410106,-1.2188 -0.3767278,0.3578 1.1971541,1.355 -0.5344101,0.5575 -1.4997463,-1.2316 -0.485648,0.4681 1.9365403,1.8198 -0.580372,0.558 -1.9467863,-1.8489 -0.5978164,0.6435 1.8080122,1.8528 -1.0714294,1.0714 -1.7452918,-1.8665 -0.4482623,0.3835 c 0,0 -1.26372,0.083 -1.6852193,-0.3013 -0.4872955,-0.4447 -0.5244893,-1.9084 -0.5244893,-1.9084 z"
         id="rect4382"
         style="fill:#000000;fill-opacity:1;stroke:none" />
      <path
         d="m 22.321428,10.022322 a 4.8883929,4.8883929 0 1 1 -9.776786,0 4.8883929,4.8883929 0 1 1 9.776786,0 z"
         transform="translate(-0.49107143,1024.9961)"
         id="path4387"
         style="fill:none;stroke:#000000;stroke-width:2.29999995;stroke-miterlimit:4;stroke-opacity:1;stroke-dasharray:none" />
    </g>
  </g>
</svg>
