<?xml version="1.0" encoding="UTF-8" standalone="no"?>
<!-- Created with Inkscape (http://www.inkscape.org/) -->

<svg
   xmlns:dc="http://purl.org/dc/elements/1.1/"
   xmlns:cc="http://creativecommons.org/ns#"
   xmlns:rdf="http://www.w3.org/1999/02/22-rdf-syntax-ns#"
   xmlns:svg="http://www.w3.org/2000/svg"
   xmlns="http://www.w3.org/2000/svg"
   version="1.1"
   width="24.441965"
   height="20.130562"
   id="svg3006">
  <defs
     id="defs3008" />
  <metadata
     id="metadata3011">
    <rdf:RDF>
      <cc:Work
         rdf:about="">
        <dc:format>image/svg+xml</dc:format>
        <dc:type
           rdf:resource="http://purl.org/dc/dcmitype/StillImage" />
        <dc:title></dc:title>
      </cc:Work>
    </rdf:RDF>
  </metadata>
  <g
     transform="translate(-0.19782319,-1030.2584)"
     id="layer1">
    <g
       transform="matrix(1.5,0,0,1.5,-0.33789111,-521.29827)"
       id="g6393">
      <rect
         width="2.2321429"
         height="3.75"
         ry="0.71428597"
         x="2.4107144"
         y="1044.0415"
         id="rect5791"
         style="fill:#000000;fill-opacity:1;stroke:none" />
      <rect
         width="2.2321429"
         height="3.75"
         ry="0.71428597"
         x="12.475137"
         y="1044.0404"
         id="rect5791-8"
         style="fill:#000000;fill-opacity:1;stroke:none" />
      <rect
         width="13.794642"
         height="5.4464288"
         ry="0"
         x="1.6517857"
         y="12.8125"
         transform="translate(0,1027.3622)"
         id="rect6337"
         style="fill:#000000;fill-opacity:1;stroke:none" />
      <rect
         width="11.696428"
         height="6.2946429"
         x="2.7678571"
         y="7.0089288"
         transform="translate(0,1027.3622)"
         id="rect6339"
         style="fill:#000000;fill-opacity:1;stroke:none" />
      <rect
         width="1.7857143"
         height="1.2946428"
         x="0.35714287"
         y="11.026786"
         transform="translate(0,1027.3622)"
         id="rect6341"
         style="fill:#000000;fill-opacity:1;stroke:none" />
      <rect
         width="1.7857143"
         height="1.2946428"
         x="14.866072"
         y="1038.3666"
         id="rect6341-7"
         style="fill:#000000;fill-opacity:1;stroke:none" />
      <rect
         width="9.8214283"
         height="4.5089288"
         x="3.5714285"
         y="7.7678571"
         transform="translate(0,1027.3622)"
         id="rect6365"
         style="fill:#ffffff;fill-opacity:1;stroke:none" />
      <path
         d="m 4.4642856,15.3125 a 0.9375,0.9375 0 1 1 -1.875,0 0.9375,0.9375 0 1 1 1.875,0 z"
         transform="translate(0,1027.3622)"
         id="path6369"
         style="fill:#ffffff;fill-opacity:1;stroke:none" />
      <path
         d="m 4.4642856,15.3125 a 0.9375,0.9375 0 1 1 -1.875,0 0.9375,0.9375 0 1 1 1.875,0 z"
         transform="translate(9.9706759,1027.3622)"
         id="path6369-6"
         style="fill:#ffffff;fill-opacity:1;stroke:none" />
      <path
         d="m 7.901786,12.321428 a 1.5178572,1.5178572 0 1 1 -3.0357144,0 1.5178572,1.5178572 0 1 1 3.0357144,0 z"
         transform="translate(-0.58035714,1027.3622)"
         id="path6391"
         style="fill:#000000;fill-opacity:1;stroke:none" />
    </g>
  </g>
</svg>
