<?xml version="1.0" encoding="UTF-8" standalone="no"?>
<!-- Created with Inkscape (http://www.inkscape.org/) -->

<svg
   xmlns:dc="http://purl.org/dc/elements/1.1/"
   xmlns:cc="http://creativecommons.org/ns#"
   xmlns:rdf="http://www.w3.org/1999/02/22-rdf-syntax-ns#"
   xmlns:svg="http://www.w3.org/2000/svg"
   xmlns="http://www.w3.org/2000/svg"
   xmlns:xlink="http://www.w3.org/1999/xlink"
   version="1.1"
   width="19.967857"
   height="20.035686"
   id="svg3006">
  <defs
     id="defs3008" />
  <metadata
     id="metadata3011">
    <rdf:RDF>
      <cc:Work
         rdf:about="">
        <dc:format>image/svg+xml</dc:format>
        <dc:type
           rdf:resource="http://purl.org/dc/dcmitype/StillImage" />
        <dc:title></dc:title>
      </cc:Work>
    </rdf:RDF>
  </metadata>
  <g
     transform="translate(-2.8227703,-1029.9336)"
     id="layer1">
    <path
       d="m 21.428571,12.5 a 9.8214283,9.8214283 0 1 1 -19.6428569,0 9.8214283,9.8214283 0 1 1 19.6428569,0 z"
       transform="translate(1.1995561,1027.4253)"
       id="path7249"
       style="fill:none;stroke:#000000;stroke-width:0.32499999;stroke-linecap:round;stroke-linejoin:round;stroke-miterlimit:4;stroke-opacity:1;stroke-dasharray:none" />
    <path
       d="m 13.705357,12.633928 a 0.84821427,9.7767859 0 1 1 -1.696429,0 0.84821427,9.7767859 0 1 1 1.696429,0 z"
       transform="translate(0,1027.3622)"
       id="path7770"
       style="fill:none;stroke:#000000;stroke-width:0.025;stroke-linecap:round;stroke-linejoin:round;stroke-miterlimit:4;stroke-opacity:1;stroke-dasharray:none" />
    <path
       d="m 18.348214,12.566964 a 3.5714285,9.9330359 0 1 1 -7.142857,0 3.5714285,9.9330359 0 1 1 7.142857,0 z"
       transform="translate(-2.0089286,1027.4068)"
       id="path7778"
       style="fill:none;stroke:#000000;stroke-width:0.025;stroke-linecap:round;stroke-linejoin:round;stroke-miterlimit:4;stroke-opacity:1;stroke-dasharray:none" />
    <path
       d="m 23.482143,12.65625 a 7.0535717,9.9330359 0 1 1 -14.107143,0 7.0535717,9.9330359 0 1 1 14.107143,0 z"
       transform="translate(-3.6607143,1027.2729)"
       id="path7780"
       style="fill:none;stroke:#000000;stroke-width:0.025;stroke-linecap:round;stroke-linejoin:round;stroke-miterlimit:4;stroke-opacity:1;stroke-dasharray:none" />
    <path
       d="m 7.4107143,4.375 11.0267857,0"
       transform="translate(0,1027.3622)"
       id="path7782"
       style="fill:none;stroke:#000000;stroke-width:0.1;stroke-linecap:butt;stroke-linejoin:miter;stroke-miterlimit:4;stroke-opacity:1;stroke-dasharray:none" />
    <path
       d="m 5.2232143,6.2946428 15.0892857,0"
       transform="translate(0,1027.3622)"
       id="path7784"
       style="fill:none;stroke:#000000;stroke-width:0.1;stroke-linecap:butt;stroke-linejoin:miter;stroke-miterlimit:4;stroke-opacity:1;stroke-dasharray:none" />
    <path
       d="m 3.6160714,8.7053571 18.2142856,0"
       transform="translate(0,1027.3622)"
       id="path7786"
       style="fill:none;stroke:#000000;stroke-width:0.1;stroke-linecap:butt;stroke-linejoin:miter;stroke-miterlimit:4;stroke-opacity:1;stroke-dasharray:none" />
    <path
       d="m 2.9464286,11.160714 19.6875004,0"
       transform="translate(0,1027.3622)"
       id="path7788"
       style="fill:none;stroke:#000000;stroke-width:0.1;stroke-linecap:butt;stroke-linejoin:miter;stroke-miterlimit:4;stroke-opacity:1;stroke-dasharray:none" />
    <use
       transform="matrix(1,0,0,-1,0,2079.6797)"
       id="use7790"
       x="0"
       y="0"
       width="25"
       height="25"
       xlink:href="#path7782" />
    <use
       transform="matrix(1,0,0,-1,0,2079.6797)"
       id="use7792"
       x="0"
       y="0"
       width="25"
       height="25"
       xlink:href="#path7784" />
    <use
       transform="matrix(1,0,0,-1,0,2079.6797)"
       id="use7794"
       x="0"
       y="0"
       width="25"
       height="25"
       xlink:href="#path7786" />
    <use
       transform="matrix(1,0,0,-1,0,2079.6797)"
       id="use7796"
       x="0"
       y="0"
       width="25"
       height="25"
       xlink:href="#path7788" />
    <path
       d="M 7.7813313,20.990957 C 7.6550623,20.927823 6.6606934,20.185992 6.6606934,20.185992 L 6.5502079,19.160056 6.3134534,18.339307 6.4239388,17.218669 6.6922606,15.70344 6.3765879,15.514036 6.3134534,14.898475 5.5084881,13.935673 5.2243827,13.383246 5.3664354,12.167906 5.7610262,11.789099 6.0451316,11.047268 5.9346462,10.668461 5.4295699,10.226519 5.4769208,9.75301 4.9876282,9.3899864 5.0191955,8.979612 4.1826629,8.4903193 4.1510956,8.0325939 4.9876282,6.6436342 7.1973369,4.5917618 8.9966711,3.5658257 10.811789,2.9660476 12.07448,2.8239949 l 0.426158,0.1578363 0.07892,0.2998891 -0.34724,0.2209708 -0.220971,0.1578364 -0.34724,-0.1894036 -0.726047,0.094702 -0.615562,0.094702 -0.457725,0.3788072 0.015784,0.4892926 0.410374,0.031567 0.363024,-0.2998891 0,-0.2051872 0.473509,-0.047351 0.34724,-0.17362 0.34724,0.3156727 0.284105,0.2683218 L 11.790374,4.7022473 11.869292,4.8443 12.184965,4.7495982 12.027129,5.444078 11.711456,5.6334816 11.269514,5.317809 10.843356,5.6808325 9.8016364,5.8386689 8.7914839,6.2174761 7.9865186,6.6120669 7.6550623,6.8014705 7.5919277,7.6064358 7.4340914,7.7958394 7.2289042,7.3381141 c 0,0 -0.094702,-0.4261581 -0.17362,-0.4103745 C 6.976366,6.9435232 6.6291261,6.7699033 6.6291261,6.7699033 L 5.9819971,6.8330378 5.382219,7.2749795 5.0665464,7.8116231 5.1770318,8.2062139 c 0,0 0.2841054,0.1894036 0.4261581,0.1894036 0.1420527,0 0.3945908,0.047351 0.3945908,0.047351 l -0.078918,0.4577254 -0.3945909,0.015784 0.015784,0.2525382 0.2367545,0.1736199 c 0,0 -0.063135,0.962802 0,0.962802 0.063135,0 0.3788072,0.268322 0.3788072,0.268322 l 0.4892926,-0.01578 0.3945909,-0.441941 1.1364216,0.489292 0.5682108,0.426158 0.031567,0.220971 0.8523163,0.284106 0.4419413,0.536643 0.378807,0.662912 0.331457,0.441941 0.662912,0.220972 0.52086,0.505077 0.0947,0.473509 -0.126269,0.489292 -0.473509,0.299889 -0.189404,0.615562 -0.220971,0.536643 -0.426158,0.252539 -0.7102629,0.252538 -0.5208599,0.883883 -0.4261582,0.536644 -0.4577253,0.315673 -0.473509,0.39459 -0.2209709,0.568211 -0.078918,0.678696 z"
       transform="translate(0,1027.3622)"
       id="path7802"
       style="fill:#000000;fill-opacity:1;stroke:#000000;stroke-width:0.1;stroke-linecap:butt;stroke-linejoin:miter;stroke-miterlimit:4;stroke-opacity:1;stroke-dasharray:none" />
    <path
       d="m 12.832094,2.6819422 -0.07892,0.4892926 -0.142053,0.2525382 0.04735,0.5208599 0.252538,0.4892926 0.331457,0.4419417 0.457725,-0.6155617 0.236754,-0.4577253 0.441942,-0.1104855 0.410375,-0.3314563 0.01578,-0.3630236 -0.804965,-0.1894036 z"
       transform="translate(0,1027.3622)"
       id="path7823"
       style="fill:#000000;fill-opacity:1;stroke:#000000;stroke-width:0.1;stroke-linecap:butt;stroke-linejoin:miter;stroke-miterlimit:4;stroke-opacity:1;stroke-dasharray:none" />
    <path
       d="m 14.442025,4.1498201 -0.299889,0.1104854 0.03157,0.2683218 c 0,0 0.331456,0.2051872 0.394591,0.2051872 0.06313,0 0.189403,-0.2525381 0.189403,-0.2525381 0,0 0.220971,-0.031567 0.189404,-0.1262691 -0.03157,-0.094702 -0.110485,-0.3472399 -0.110485,-0.3472399 l -0.363024,0.063135 z"
       transform="translate(0,1027.3622)"
       id="path7825"
       style="fill:#000000;fill-opacity:1;stroke:#000000;stroke-width:0.1;stroke-linecap:butt;stroke-linejoin:miter;stroke-miterlimit:4;stroke-opacity:1;stroke-dasharray:none" />
    <path
       d="m 18.056477,4.3234401 -0.773398,0.031567 -0.01578,0.6155617 0.17362,0.3156727 0.34724,0.17362 0.220971,0.047351 0.01578,0.1736199 0.173619,0.1262691 0.331457,0 -0.01578,0.5524272 0.06313,0.2525381 -0.315673,0.34724 -0.315673,0.1736199 -0.552427,0.063135 -0.284105,0.2525381 0.220971,0.3788072 0.410374,0.5050763 0.505076,0.078918 0.378808,-0.1578364 0.126269,-0.4892926 0.01578,-0.1420527 0.836533,0.3156726 0.01578,0.3945909 0.284106,0 0.236754,-0.1420527 0.205188,0.1262691 -0.03157,0.2525381 0.252538,-0.031567 0.489293,0.1894036 0.505076,0.2998891 0.157837,0.4103744 c 0,0 -0.110486,0.1578364 -0.189404,0.1578364 -0.07892,0 -0.773398,-0.1262691 -0.773398,-0.1262691 L 20.250393,9.169016 c 0,0 -0.34724,-0.2367545 -0.426158,-0.2841054 -0.07892,-0.047351 -0.852316,-0.2367545 -0.852316,-0.2367545 L 17.835506,8.805992 17.109459,9.0585301 16.920055,9.4689046 c 0,0 -0.441942,0.094702 -0.505076,0.1420527 -0.06313,0.047351 -0.394591,0.3630236 -0.394591,0.3630236 l 0,0.5524271 -0.07892,0.583994 -0.157836,0.631346 -0.0947,0.662912 0.252538,0.457726 0.678696,0.552427 0.505076,0.363024 1.136422,0.110485 c 0,0 0.489293,0.04735 0.552427,0.06313 0.06313,0.01578 0.583995,0.126269 0.583995,0.126269 l -0.01578,0.931234 -0.189404,0.157836 -0.0947,0.34724 0.22097,0.631346 0.04735,0.583994 -0.205187,0.505076 -0.489293,0.457726 -0.236754,0.615561 c 0,0 0.205187,0.394591 0.205187,0.489293 0,0.0947 -0.0947,0.568211 -0.0947,0.568211 l -0.378807,0.631345 -0.142052,0.394591 0.126269,0.331456 0.947018,-0.615561 1.08907,-1.010153 1.310042,-1.925603 0.773398,-1.894036 0.315673,-1.467878 0.110485,-1.720416 L 22.365409,10.210735 21.812982,8.7270738 21.19742,7.4170322 20.124133,5.9807216 18.877226,4.8285163 z"
       transform="translate(0,1027.3622)"
       id="path7827"
       style="fill:#000000;fill-opacity:1;stroke:#000000;stroke-width:0.1;stroke-linecap:butt;stroke-linejoin:round;stroke-miterlimit:4;stroke-opacity:1;stroke-dasharray:none" />
  </g>
</svg>
