<?xml version="1.0" encoding="UTF-8" standalone="no"?>
<!-- Created with Inkscape (http://www.inkscape.org/) -->

<svg
   xmlns:dc="http://purl.org/dc/elements/1.1/"
   xmlns:cc="http://creativecommons.org/ns#"
   xmlns:rdf="http://www.w3.org/1999/02/22-rdf-syntax-ns#"
   xmlns:svg="http://www.w3.org/2000/svg"
   xmlns="http://www.w3.org/2000/svg"
   xmlns:sodipodi="http://sodipodi.sourceforge.net/DTD/sodipodi-0.dtd"
   xmlns:inkscape="http://www.inkscape.org/namespaces/inkscape"
   width="23.531452"
   height="24.241171"
   id="svg3006"
   version="1.1"
   inkscape:version="0.48.4 r9939"
   sodipodi:docname="babysitting_icon.svg">
  <defs
     id="defs3008" />
  <sodipodi:namedview
     id="base"
     pagecolor="#ffffff"
     bordercolor="#666666"
     borderopacity="1.0"
     inkscape:pageopacity="0.0"
     inkscape:pageshadow="2"
     inkscape:zoom="7.9195959"
     inkscape:cx="26.285652"
     inkscape:cy="12.186744"
     inkscape:document-units="px"
     inkscape:current-layer="layer1"
     showgrid="false"
     inkscape:window-width="744"
     inkscape:window-height="602"
     inkscape:window-x="716"
     inkscape:window-y="330"
     inkscape:window-maximized="0"
     fit-margin-top="0"
     fit-margin-left="0"
     fit-margin-right="0"
     fit-margin-bottom="0" />
  <metadata
     id="metadata3011">
    <rdf:RDF>
      <cc:Work
         rdf:about="">
        <dc:format>image/svg+xml</dc:format>
        <dc:type
           rdf:resource="http://purl.org/dc/dcmitype/StillImage" />
        <dc:title></dc:title>
      </cc:Work>
    </rdf:RDF>
  </metadata>
  <g
     inkscape:label="Layer 1"
     inkscape:groupmode="layer"
     id="layer1"
     transform="translate(0.22788164,-1027.9426)">
    <path
       sodipodi:type="arc"
       style="fill:#000000;fill-opacity:1;stroke:none"
       id="path6373"
       sodipodi:cx="14.375"
       sodipodi:cy="13.75"
       sodipodi:rx="3.75"
       sodipodi:ry="3.75"
       d="m 18.125,13.75 c 0,2.071068 -1.678932,3.75 -3.75,3.75 -2.071068,0 -3.75,-1.678932 -3.75,-3.75 0,-2.071068 1.678932,-3.75 3.75,-3.75 2.071068,0 3.75,1.678932 3.75,3.75 z"
       transform="translate(5.1785714,1034.6837)" />
    <path
       sodipodi:type="arc"
       style="fill:#000000;fill-opacity:1;stroke:none"
       id="path6373-0"
       sodipodi:cx="14.375"
       sodipodi:cy="13.75"
       sodipodi:rx="3.75"
       sodipodi:ry="3.75"
       d="m 18.125,13.75 c 0,2.071068 -1.678932,3.75 -3.75,3.75 -2.071068,0 -3.75,-1.678932 -3.75,-3.75 0,-2.071068 1.678932,-3.75 3.75,-3.75 2.071068,0 3.75,1.678932 3.75,3.75 z"
       transform="translate(-8.6607143,1034.6838)" />
    <path
       sodipodi:type="arc"
       style="fill:#000000;fill-opacity:1;stroke:none"
       id="path6903"
       sodipodi:cx="14.642858"
       sodipodi:cy="14.910714"
       sodipodi:rx="10.535714"
       sodipodi:ry="7.6785712"
       d="m 25.178572,14.910714 c 0,4.240758 -4.717,7.678571 -10.535714,7.678571 -5.8187147,0 -10.5357146,-3.437813 -10.5357146,-7.678571 0,0 0,0 0,0 l 10.5357146,0 z"
       transform="translate(-2.0535714,1023.0765)"
       sodipodi:start="0"
       sodipodi:end="3.1415927" />
    <path
       sodipodi:type="arc"
       style="fill:#000000;fill-opacity:1;stroke:none"
       id="path6913"
       sodipodi:cx="20.803572"
       sodipodi:cy="12.1875"
       sodipodi:rx="9.375"
       sodipodi:ry="9.2410717"
       d="m 30.178572,12.1875 c 0,5.103703 -4.197331,9.241072 -9.375,9.241072 l 0,-9.241072 z"
       transform="matrix(1,0,0,-1,-7.3214286,1049.3712)"
       sodipodi:start="0"
       sodipodi:end="1.5707963" />
    <rect
       style="fill:#000000;fill-opacity:1;stroke:none"
       id="rect6917"
       width="17.803938"
       height="1.1364216"
       x="516.01776"
       y="893.08832"
       transform="matrix(0.8660254,0.5,-0.5,0.8660254,0,0)" />
  </g>
</svg>
