<?xml version="1.0" encoding="UTF-8" standalone="no"?>
<!-- Created with Inkscape (http://www.inkscape.org/) -->

<svg
   xmlns:dc="http://purl.org/dc/elements/1.1/"
   xmlns:cc="http://creativecommons.org/ns#"
   xmlns:rdf="http://www.w3.org/1999/02/22-rdf-syntax-ns#"
   xmlns:svg="http://www.w3.org/2000/svg"
   xmlns="http://www.w3.org/2000/svg"
   xmlns:sodipodi="http://sodipodi.sourceforge.net/DTD/sodipodi-0.dtd"
   xmlns:inkscape="http://www.inkscape.org/namespaces/inkscape"
   width="24.767225"
   height="21.1432"
   id="svg3006"
   version="1.1"
   inkscape:version="0.48.4 r9939"
   sodipodi:docname="dog_walking_icon.svg">
  <defs
     id="defs3008" />
  <sodipodi:namedview
     id="base"
     pagecolor="#ffffff"
     bordercolor="#666666"
     borderopacity="1.0"
     inkscape:pageopacity="0.0"
     inkscape:pageshadow="2"
     inkscape:zoom="5.6"
     inkscape:cx="-4.9170342"
     inkscape:cy="2.4798656"
     inkscape:document-units="px"
     inkscape:current-layer="layer1"
     showgrid="false"
     inkscape:window-width="744"
     inkscape:window-height="602"
     inkscape:window-x="905"
     inkscape:window-y="314"
     inkscape:window-maximized="0"
     fit-margin-top="0"
     fit-margin-left="0"
     fit-margin-right="0"
     fit-margin-bottom="0" />
  <metadata
     id="metadata3011">
    <rdf:RDF>
      <cc:Work
         rdf:about="">
        <dc:format>image/svg+xml</dc:format>
        <dc:type
           rdf:resource="http://purl.org/dc/dcmitype/StillImage" />
        <dc:title></dc:title>
      </cc:Work>
    </rdf:RDF>
  </metadata>
  <g
     inkscape:label="Layer 1"
     inkscape:groupmode="layer"
     id="layer1"
     transform="translate(-0.04464286,-1029.6335)">
    <path
       style="fill:#000000;fill-opacity:1;stroke:none"
       d="m 6.3207941,1030.7997 0.044643,0.8482 -0.4910714,0.9822 -0.5357143,1.2053 -0.044643,1.6964 0,1.3393 0.00929,0.5914 0.7576144,0.8523 0.3156727,-0.095 1.1679889,-0.5367 2.6832166,-0.5051 1.925603,-0.8838 1.799335,-0.7577 0.56821,-0.726 0.34724,-0.2841 0.852317,0.1578 -0.12627,-0.6944 0.631346,-1.1049 0.915451,-1.7993 1.167988,-1.168 1.010153,-0.2841 1.04172,0.063 0.757614,0.3472 0.69448,0.5051 0.599778,0.6629 0.378807,0.6629 0.631346,0.5367 1.231123,0.6629 0.157836,0.3788 -0.157836,0.6629 -0.157836,0.7576 -0.0947,0.3473 -0.284105,0.2209 -0.69448,0.1579 -0.726047,0 -0.726047,-0.1579 -0.852316,0.4104 -0.852316,0.063 -0.01682,0.5536 0.290179,0.2679 0.02232,0.3125 -0.647321,0.2009 -0.446429,-0.3795 0,0.7143 -0.08929,1.5179 -0.08929,1.6071 -0.401786,0.7813 -0.424107,0.067 -0.357134,0.8036 -0.290179,0.7589 -0.267857,0.6027 0.133929,0.5357 0.46875,0.7143 0.04464,1.2947 0.290178,0.491 0.290179,0.3795 0.602678,0.2455 0.379465,-0.045 0.200892,0.3348 -1.09375,0.4241 -1.138392,0.2009 -0.736608,-0.2009 -0.267857,-0.2455 -0.111607,-0.8482 -0.46875,-0.1563 0.02232,1.3839 -0.691965,0.045 -1.026785,0 -0.446429,-0.1563 0.580357,-1.0491 0.379464,-2.5 -0.04464,-1.1384 -2.5,0.2679 -1.428572,0.2009 -0.15625,0.089 0.06696,0.9821 -0.334821,0.8036 -0.178571,0.3125 -0.02232,0.3125 -0.7812491,0.558 -0.5803572,0.3795 -0.022321,0.9152 0.6026786,0.4464 0.5580347,0.6027 -0.468749,0.1785 -1.0044643,0 -0.6919597,-0.089 -1.1607143,-1.1608 -0.3571428,-0.2455 0.044643,-0.8705 1.0044643,-1.317 0.15625,-0.5134 -0.3348214,-0.5357 -0.4017857,0.5357 -0.3125,0.3795 -0.2455358,0.7812 -0.4464285,0.3348 -1.1383929,0.9822 -0.6696429,0.6696 -0.2008928,0.4911 0.022321,0.5357 -0.044643,1.0491 -0.2678572,0.2679 -0.7589286,-0.2009 -0.46875,-0.067 -0.1785714,-0.8928 -0.2678571,-1.5625 0.022321,-0.692 0.2008929,-0.3125 0.7142857,-0.4464 0.46875,-0.5804 0.1785714,-1.3169 0.089286,-1.2947 0.066964,-1.5625 0.3348214,-0.9375 0.2901786,-0.4464 0.2232143,-0.3125 0,-0.4911 -0.1339286,-0.6027 -0.2455357,-0.4687 -0.1785714,-0.7589 -0.066964,-1.4733 0.044643,-1.3392 0.2008929,-1.2054 0.2901786,-0.9821 0.625,-0.9822 0.8928571,-0.9821 0.3571429,-0.2232 z"
       id="path5230"
       inkscape:connector-curvature="0" />
    <path
       style="fill:#000000;fill-opacity:1;stroke:none"
       d="M 0.04464286,11.517857 15.223214,7.5892857 15.178571,8.3928571 0.04464286,12.142857 z"
       id="path5742"
       inkscape:connector-curvature="0"
       transform="translate(0,1027.3622)" />
  </g>
</svg>
