<?xml version="1.0" encoding="UTF-8" standalone="no"?>
<!-- Created with Inkscape (http://www.inkscape.org/) -->

<svg
   xmlns:dc="http://purl.org/dc/elements/1.1/"
   xmlns:cc="http://creativecommons.org/ns#"
   xmlns:rdf="http://www.w3.org/1999/02/22-rdf-syntax-ns#"
   xmlns:svg="http://www.w3.org/2000/svg"
   xmlns="http://www.w3.org/2000/svg"
   xmlns:sodipodi="http://sodipodi.sourceforge.net/DTD/sodipodi-0.dtd"
   xmlns:inkscape="http://www.inkscape.org/namespaces/inkscape"
   width="20.755014"
   height="22.97345"
   id="svg3006"
   version="1.1"
   inkscape:version="0.48.4 r9939"
   sodipodi:docname="password_icon.svg">
  <defs
     id="defs3008" />
  <sodipodi:namedview
     id="base"
     pagecolor="#ffffff"
     bordercolor="#666666"
     borderopacity="1.0"
     inkscape:pageopacity="0.0"
     inkscape:pageshadow="2"
     inkscape:zoom="11.2"
     inkscape:cx="-6.9340566"
     inkscape:cy="3.0392085"
     inkscape:document-units="px"
     inkscape:current-layer="layer1"
     showgrid="false"
     inkscape:window-width="1920"
     inkscape:window-height="1030"
     inkscape:window-x="0"
     inkscape:window-y="24"
     inkscape:window-maximized="1"
     fit-margin-top="0"
     fit-margin-left="0"
     fit-margin-right="0"
     fit-margin-bottom="0" />
  <metadata
     id="metadata3011">
    <rdf:RDF>
      <cc:Work
         rdf:about="">
        <dc:format>image/svg+xml</dc:format>
        <dc:type
           rdf:resource="http://purl.org/dc/dcmitype/StillImage" />
        <dc:title></dc:title>
      </cc:Work>
    </rdf:RDF>
  </metadata>
  <g
     inkscape:label="Layer 1"
     inkscape:groupmode="layer"
     id="layer1"
     transform="translate(-2.222664,-1028.9649)">
    <g
       id="g4389">
      <path
         sodipodi:nodetypes="ccccccccccccccccccccccscc"
         inkscape:connector-curvature="0"
         id="rect4382"
         d="m 12.592186,1037.8918 2.209709,2.2097 -2.520457,2.6007 -0.570416,0.5886 -0.637361,0.6577 -0.996999,1.0787 1.257104,1.2569 -1.115599,1.2696 -1.4410106,-1.2188 -0.3767278,0.3578 1.1971541,1.355 -0.5344101,0.5575 -1.4997463,-1.2316 -0.485648,0.4681 1.9365403,1.8198 -0.580372,0.558 -1.9467863,-1.8489 -0.5978164,0.6435 1.8080122,1.8528 -1.0714294,1.0714 -1.7452918,-1.8665 -0.4482623,0.3835 c 0,0 -1.26372,0.083 -1.6852193,-0.3013 -0.4872955,-0.4447 -0.5244893,-1.9084 -0.5244893,-1.9084 z"
         style="fill:#000000;fill-opacity:1;stroke:none" />
      <path
         transform="translate(-0.49107143,1024.9961)"
         d="m 22.321428,10.022322 c 0,2.699785 -2.188608,4.888393 -4.888393,4.888393 -2.699785,0 -4.888393,-2.188608 -4.888393,-4.888393 0,-2.6997852 2.188608,-4.8883932 4.888393,-4.8883932 2.699785,0 4.888393,2.188608 4.888393,4.8883932 z"
         sodipodi:ry="4.8883929"
         sodipodi:rx="4.8883929"
         sodipodi:cy="10.022322"
         sodipodi:cx="17.433035"
         id="path4387"
         style="fill:none;stroke:#000000;stroke-width:2.29999995;stroke-miterlimit:4;stroke-opacity:1;stroke-dasharray:none"
         sodipodi:type="arc" />
    </g>
  </g>
</svg>
